<svg width="136" height="31" viewBox="0 0 136 31" fill="none" xmlns="http://www.w3.org/2000/svg">
<path d="M0.761364 24H16.0682V19.4318H6.38636V0.727272H0.761364V24ZM30.2415 16.4659C30.2415 18.5 28.946 19.6364 27.2983 19.6364C25.5938 19.6364 24.5483 18.4773 24.5369 16.5795V6.54545H18.9801V17.6705C18.9915 21.6136 21.3892 24.2273 24.9801 24.2273C27.5938 24.2273 29.5369 22.8864 30.3097 20.75H30.4915V24H35.7869V6.54545H30.2415V16.4659ZM44.0511 6.54545H38.4148L43.233 15.2727L38.1648 24H43.8011L46.9261 18.2045L50.1307 24H55.6875L50.6307 15.2727L55.5057 6.54545H49.9034L46.9261 12.2955L44.0511 6.54545ZM58.0881 24H73.0767V19.6818H65.304V19.5682L72.804 10.0227V6.54545H58.3722V10.8636H66.179V10.9773L58.0881 20.8295V24ZM87.929 16.4659C87.929 18.5 86.6335 19.6364 84.9858 19.6364C83.2812 19.6364 82.2358 18.4773 82.2244 16.5795V6.54545H76.6676V17.6705C76.679 21.6136 79.0767 24.2273 82.6676 24.2273C85.2812 24.2273 87.2244 22.8864 87.9972 20.75H88.179V24H93.4744V6.54545H87.929V16.4659ZM97.0114 24H102.568V14.5227C102.568 12.4432 104.045 11.0455 106.034 11.0455C106.693 11.0455 107.682 11.1591 108.216 11.3409V6.51136C107.75 6.38636 107.17 6.30682 106.659 6.30682C104.75 6.30682 103.227 7.42045 102.591 9.72727H102.409V6.54545H97.0114V24ZM114.409 30.5455C118.409 30.5455 120.398 28.5227 121.364 25.6705L127.943 6.55682L122.091 6.54545L118.83 19H118.648L115.432 6.54545H109.614L115.818 24.6364L115.602 25.1591C115.068 26.4659 113.864 26.4886 112.227 25.9545L111 29.9886C111.841 30.3295 113.08 30.5455 114.409 30.5455ZM132.105 24.3295C133.662 24.3295 135.037 23.0114 135.06 21.375C135.037 19.7614 133.662 18.4545 132.105 18.4545C130.469 18.4545 129.128 19.7614 129.151 21.375C129.128 23.0114 130.469 24.3295 132.105 24.3295Z" fill="#0A8077"/>
</svg>
